<svg width="248" height="41" viewBox="0 0 248 41" fill="none" xmlns="http://www.w3.org/2000/svg">
<path d="M111.265 0H245.487C246.153 0 246.793 0.266837 247.264 0.741809C247.735 1.21678 248 1.86098 248 2.53269V38.4673C248 39.139 247.735 39.7832 247.264 40.2582C246.793 40.7332 246.153 41 245.487 41H111.265V0Z" fill="#1DBEB4"/>
<path d="M127.194 30.6823C126.296 30.6825 125.399 30.6244 124.508 30.5083C123.679 30.4065 122.868 30.1896 122.098 29.8638C121.425 29.5888 120.833 29.1451 120.378 28.5749C119.924 27.9508 119.699 27.1883 119.738 26.416V7.72693H124.432V16.6719L123.536 15.151C123.942 14.6814 124.447 14.3092 125.014 14.0619C125.6 13.7992 126.217 13.6088 126.849 13.4948C127.358 13.4006 127.873 13.3467 128.39 13.3337C130.794 13.3337 132.623 14.064 133.876 15.5248C135.13 16.9856 135.756 19.1187 135.756 21.9242C135.796 23.3353 135.579 24.7418 135.117 26.0745C134.75 27.109 134.132 28.0349 133.32 28.7683C132.533 29.4445 131.61 29.9414 130.615 30.2247C129.502 30.5405 128.35 30.6946 127.194 30.6823ZM127.13 26.6674C127.919 26.7056 128.702 26.5084 129.381 26.1002C129.938 25.7176 130.361 25.1673 130.59 24.5278C130.844 23.7883 130.967 23.0096 130.954 22.2271C130.994 21.2207 130.831 20.2166 130.475 19.2755C130.216 18.6163 129.754 18.0583 129.157 17.6837C128.571 17.3564 127.909 17.1898 127.239 17.2004C126.764 17.2044 126.29 17.2584 125.826 17.3615C125.338 17.4598 124.87 17.6361 124.438 17.8835V25.14C124.428 25.3086 124.455 25.4775 124.517 25.6345C124.579 25.7915 124.674 25.9329 124.796 26.0487C125.076 26.2882 125.413 26.4503 125.775 26.5191C126.215 26.6184 126.666 26.6682 127.117 26.6674H127.13Z" fill="white"/>
<path d="M146.397 30.6823C143.656 30.6823 141.592 29.9433 140.207 28.4654C138.821 26.9874 138.129 24.8092 138.129 21.9307C138.129 18.8416 138.832 16.6225 140.239 15.2735C141.646 13.9244 143.698 13.2477 146.397 13.2434C147.976 13.1919 149.545 13.5095 150.982 14.1715C152.203 14.7734 153.187 15.7723 153.776 17.007C154.466 18.5523 154.792 20.2374 154.729 21.9307C154.729 24.8049 154.011 26.9831 152.574 28.4654C151.137 29.9476 149.078 30.6866 146.397 30.6823ZM146.397 26.8156C147.099 26.8437 147.791 26.645 148.373 26.2485C148.926 25.8303 149.341 25.2528 149.562 24.5922C149.853 23.7319 149.989 22.8263 149.965 21.9178C150 20.9453 149.864 19.9743 149.562 19.05C149.352 18.416 148.926 17.8774 148.36 17.529C147.759 17.1985 147.081 17.0361 146.397 17.0586C145.692 17.0291 144.994 17.2011 144.383 17.5548C143.839 17.9224 143.435 18.4656 143.238 19.0951C142.965 20.0142 142.842 20.9718 142.873 21.9307C142.873 23.574 143.155 24.8049 143.724 25.6105C144.03 26.0253 144.436 26.3548 144.904 26.5679C145.372 26.781 145.885 26.8707 146.397 26.8285V26.8156Z" fill="white"/>
<path d="M165.376 30.6823C162.626 30.6823 160.567 29.9476 159.18 28.4654C157.792 26.9831 157.108 24.8049 157.108 21.9307C157.108 18.8416 157.811 16.6225 159.218 15.2735C160.625 13.9244 162.678 13.2477 165.376 13.2434C166.955 13.1919 168.524 13.5095 169.961 14.1715C171.181 14.7754 172.164 15.7737 172.755 17.007C173.445 18.5523 173.771 20.2374 173.708 21.9307C173.708 24.8049 172.99 26.9831 171.553 28.4654C170.117 29.9476 168.058 30.6866 165.376 30.6823ZM165.376 26.8156C166.078 26.8437 166.77 26.645 167.352 26.2485C167.905 25.8303 168.32 25.2528 168.541 24.5922C168.832 23.7319 168.969 22.8263 168.944 21.9178C168.98 20.9453 168.843 19.9743 168.541 19.05C168.323 18.4269 167.899 17.8988 167.339 17.5548C166.738 17.2243 166.06 17.0618 165.376 17.0844C164.679 17.0535 163.988 17.221 163.381 17.5677C162.835 17.9333 162.431 18.4772 162.236 19.108C161.961 20.0266 161.836 20.9843 161.865 21.9435C161.776 23.2292 162.074 24.5121 162.722 25.6233C163.028 26.033 163.432 26.3581 163.896 26.5688C164.36 26.7794 164.869 26.8688 165.376 26.8285V26.8156Z" fill="white"/>
<path d="M181.778 30.199H176.995V7.60449H181.816L181.778 30.199ZM180.748 21.1766L186.734 13.817H192.553L183.517 23.4258L180.748 21.1766ZM184.387 19.0693L192.981 30.199H186.9L180.979 22.3238L184.387 19.0693Z" fill="white"/>
<path d="M195.929 11.5615V7.83008H200.885V11.5615H195.929ZM196.025 30.199V14.0232H200.821L200.853 30.199H196.025Z" fill="white"/>
<path d="M205.131 15.1897C205.649 14.9352 206.186 14.7198 206.736 14.5453C207.455 14.3045 208.188 14.1044 208.929 13.946C209.722 13.772 210.515 13.6302 211.321 13.5206C212.063 13.4199 212.81 13.3661 213.559 13.3595C214.825 13.3314 216.086 13.5232 217.287 13.9266C218.256 14.2578 219.088 14.9038 219.653 15.7633C220.252 16.8035 220.536 17.9974 220.471 19.1982V30.2184H215.682V20.1327C215.687 19.7471 215.627 19.3633 215.503 18.9985C215.394 18.6639 215.213 18.3579 214.972 18.1027C214.7 17.8354 214.369 17.6366 214.006 17.5227C213.529 17.3706 213.03 17.2988 212.529 17.31C212.029 17.31 211.531 17.3706 211.046 17.4904C210.658 17.5707 210.28 17.6961 209.92 17.8642V30.1797H205.131V15.1897Z" fill="white"/>
<path d="M230.958 30.6824C229.617 30.6418 228.303 30.2866 227.122 29.6448C226.047 29.029 225.184 28.0985 224.647 26.9768C224.008 25.5809 223.704 24.0534 223.758 22.5172C223.718 20.9849 223.947 19.4575 224.436 18.006C224.811 16.9233 225.459 15.9574 226.316 15.2027C227.167 14.5091 228.164 14.0218 229.232 13.7784C230.474 13.4823 231.747 13.3395 233.024 13.3531C234.223 13.3299 235.418 13.5063 236.56 13.8751C237.462 14.1517 238.274 14.6655 238.913 15.3638C239.475 16.032 239.771 16.886 239.745 17.7611V30.4053C239.767 31.4414 239.582 32.4715 239.201 33.4342C238.847 34.2938 238.289 35.0528 237.577 35.6447C236.806 36.2648 235.918 36.7208 234.968 36.9851C233.823 37.3064 232.639 37.4605 231.451 37.4427C230.216 37.4606 228.982 37.357 227.768 37.1334C226.956 36.9988 226.169 36.7425 225.434 36.3729V32.126C225.753 32.2548 226.226 32.4289 226.847 32.6415C227.529 32.8729 228.228 33.0517 228.938 33.1764C229.701 33.3172 230.476 33.3884 231.253 33.3891C232.052 33.4291 232.85 33.2858 233.587 32.9702C234.087 32.7343 234.491 32.3313 234.731 31.8295C234.952 31.3198 235.061 30.768 235.051 30.212V27.5439L235.985 28.2206C235.645 28.7103 235.233 29.1449 234.763 29.5095C234.265 29.8917 233.704 30.1839 233.107 30.3731C232.41 30.584 231.686 30.6883 230.958 30.6824ZM232.18 27.0541C232.701 27.0595 233.221 26.9989 233.727 26.8737C234.198 26.7557 234.652 26.5759 235.076 26.3388V18.8438C235.089 18.6534 235.061 18.4623 234.995 18.2835C234.929 18.1046 234.826 17.9419 234.693 17.8063C234.418 17.5639 234.085 17.3973 233.727 17.3229C233.326 17.2366 232.916 17.1934 232.506 17.194C231.679 17.1428 230.858 17.3694 230.172 17.8385C229.586 18.2925 229.159 18.922 228.951 19.6365C228.691 20.4813 228.566 21.3622 228.58 22.2465C228.511 23.503 228.862 24.7465 229.577 25.7781C229.878 26.1852 230.271 26.5136 230.724 26.7356C231.177 26.9577 231.676 27.0669 232.18 27.0541Z" fill="white"/>
<path d="M2.51306 0H111.77V41H2.51306C1.84655 41 1.20735 40.7332 0.736058 40.2582C0.264768 39.7832 0 39.139 0 38.4673L0 2.53269C0 1.86098 0.264768 1.21678 0.736058 0.741809C1.20735 0.266837 1.84655 0 2.51306 0V0Z" fill="white"/>
<path d="M16.9137 30.6823C15.7368 30.695 14.5633 30.5542 13.4222 30.2634C12.4105 30.0114 11.4698 29.5285 10.6726 28.8521C9.85167 28.1175 9.22718 27.1868 8.85653 26.1454C8.38545 24.7704 8.16871 23.32 8.21708 21.8662C8.21708 19.2111 8.85653 17.1145 10.1354 15.5764C11.4144 14.0383 13.3604 13.2714 15.9737 13.2757C16.319 13.2757 16.7666 13.3079 17.3293 13.3595C17.9218 13.4196 18.5042 13.5561 19.0622 13.7655C19.6824 13.9911 20.2365 14.37 20.6737 14.8675L19.6889 16.3562V7.05029H24.4465V25.9327C24.4636 26.6802 24.2392 27.413 23.807 28.0207C23.3538 28.6394 22.7652 29.1444 22.0869 29.4965C21.3306 29.8982 20.524 30.1952 19.6889 30.3794C18.7775 30.5817 17.8469 30.6832 16.9137 30.6823ZM17.1055 26.6352C17.759 26.662 18.4113 26.5568 19.0239 26.3258C19.2142 26.2581 19.3797 26.1337 19.4985 25.9692C19.6172 25.8046 19.6836 25.6076 19.6889 25.4043V17.8449C19.2974 17.6284 18.8807 17.4617 18.4484 17.3486C18.0322 17.2302 17.6019 17.1695 17.1694 17.1682C16.3825 17.1438 15.6001 17.298 14.8802 17.6193C14.2445 17.9377 13.748 18.4817 13.4862 19.1466C13.1381 20.065 12.9792 21.0451 13.0194 22.0273C12.9996 22.8603 13.1295 23.69 13.4031 24.4762C13.6407 25.136 14.091 25.6965 14.682 26.068C15.4279 26.4889 16.2777 26.6857 17.1311 26.6352H17.1055Z" fill="#1D1D1B"/>
<path d="M28.718 11.5615V7.83008H33.6738V11.5615H28.718ZM28.8139 30.199V14.0232H33.6098V30.199H28.8139Z" fill="#1D1D1B"/>
<path d="M44.1608 30.6823C42.8192 30.6427 41.5053 30.2874 40.3241 29.6448C39.2495 29.0273 38.3848 28.0975 37.843 26.9767C37.2095 25.5793 36.9073 24.0525 36.9606 22.5171C36.9169 20.9846 37.1465 19.4567 37.6384 18.006C38.0089 16.9208 38.6575 15.9537 39.5184 15.2026C40.3669 14.5091 41.3625 14.0218 42.4279 13.7784C43.6724 13.4826 44.9478 13.3398 46.2263 13.353C47.4255 13.3303 48.6202 13.5066 49.7625 13.875C50.6633 14.1497 51.4739 14.664 52.1093 15.3637C52.6724 16.0313 52.9708 16.8852 52.947 17.7611V30.4052C52.969 31.4413 52.7842 32.4714 52.4034 33.4341C52.0473 34.2924 51.49 35.0509 50.7792 35.6446C50.0069 36.2621 49.1198 36.7179 48.1702 36.985C47.0235 37.3063 45.837 37.4604 44.6468 37.4426C43.412 37.4603 42.1784 37.3567 40.9636 37.1333C40.1542 36.9989 39.3696 36.7425 38.636 36.3728V32.1259C38.9557 32.2548 39.4289 32.4288 40.0491 32.6415C40.7313 32.8744 41.4304 33.0532 42.1402 33.1763C42.9038 33.3174 43.6786 33.3886 44.455 33.389C45.2544 33.4283 46.0522 33.2851 46.789 32.9701C47.2878 32.7339 47.69 32.3308 47.9272 31.8294C48.1524 31.3209 48.2637 30.7686 48.2534 30.2119V27.5438L49.1806 28.2205C48.8427 28.7117 48.4306 29.1466 47.9592 29.5094C47.4616 29.8928 46.901 30.1851 46.303 30.373C45.6083 30.5835 44.8862 30.6878 44.1608 30.6823ZM45.3822 27.054C45.9014 27.0598 46.4192 26.9992 46.9233 26.8736C47.3964 26.7557 47.8522 26.5759 48.2789 26.3387V18.8437C48.2908 18.6528 48.2621 18.4615 48.1948 18.2826C48.1276 18.1037 48.0233 17.9413 47.8889 17.8062C47.6153 17.5615 47.282 17.3947 46.9233 17.3228C46.5219 17.2361 46.1125 17.1929 45.7019 17.1939C44.8747 17.1437 44.0542 17.3702 43.3679 17.8384C42.7861 18.296 42.3594 18.9242 42.1466 19.6364C41.8923 20.4823 41.7693 21.3627 41.7821 22.2464C41.7144 23.5019 42.0631 24.7443 42.7732 25.778C43.0747 26.1861 43.4691 26.515 43.9231 26.7371C44.3772 26.9592 44.8777 27.0679 45.3822 27.054Z" fill="#1D1D1B"/>
<path d="M56.9946 11.5615V7.83008H61.944V11.5615H56.9946ZM57.0906 30.199V14.0232H61.8929L61.9248 30.199H57.0906Z" fill="#1D1D1B"/>
<path d="M72.8532 30.85C70.9348 30.85 69.56 30.3989 68.6392 29.5031C68.158 29.0002 67.7861 28.4018 67.5471 27.7461C67.3082 27.0903 67.2076 26.3915 67.2516 25.6944V17.4905H64.8728V13.7978H67.2516V9.28662H72.2713V13.7978H75.8395V17.4905H72.2713V25.0757C72.2352 25.5215 72.3601 25.9655 72.623 26.3259C72.7809 26.4753 72.9688 26.5889 73.174 26.6589C73.3792 26.7289 73.5969 26.7538 73.8124 26.7319C74.1742 26.7254 74.5327 26.6602 74.8739 26.5386C75.219 26.4268 75.5448 26.2616 75.8395 26.0488V30.1991C75.3819 30.441 74.8902 30.6105 74.3815 30.7017C73.8775 30.7971 73.366 30.8467 72.8532 30.85Z" fill="#1D1D1B"/>
<path d="M85.7511 30.6824C84.8268 30.6961 83.9035 30.6162 82.995 30.4439C82.1869 30.2791 81.414 29.9715 80.7122 29.5352C80.0576 29.1117 79.5294 28.517 79.1839 27.8146C78.7941 26.9679 78.6078 26.0406 78.6403 25.1079C78.6239 24.1822 78.8441 23.2678 79.2798 22.4527C79.7163 21.6763 80.3888 21.0618 81.1982 20.6998C82.2229 20.2565 83.3322 20.0474 84.4466 20.0876C85.1604 20.0837 85.8723 20.1594 86.5696 20.3131C87.2087 20.446 87.8308 20.6514 88.424 20.9254C88.8895 21.1414 89.3205 21.4259 89.7029 21.7696L89.8948 24.1025C89.4142 23.8222 88.8948 23.6159 88.3537 23.4903C87.726 23.3349 87.0816 23.2591 86.4353 23.2647C85.6425 23.2072 84.8491 23.3676 84.1397 23.7287C83.899 23.8872 83.7046 24.1075 83.5765 24.3669C83.4483 24.6263 83.3911 24.9154 83.4107 25.2045C83.4065 25.6016 83.5324 25.9889 83.7688 26.3065C84.0107 26.6381 84.338 26.8966 84.7152 27.0541C85.1065 27.2256 85.529 27.3134 85.9557 27.3119C86.7278 27.3507 87.5013 27.2747 88.2514 27.0863C88.4447 27.0309 88.6135 26.9106 88.7298 26.7454C88.846 26.5802 88.9029 26.3799 88.8908 26.1776V20.1327C88.9262 19.721 88.8573 19.307 88.6907 18.9294C88.5241 18.5518 88.2651 18.223 87.938 17.9738C87.128 17.4902 86.1916 17.2655 85.2523 17.3293C84.2825 17.3341 83.3204 17.5041 82.4067 17.832C81.5678 18.1064 80.7793 18.5179 80.0727 19.05V14.7708C80.8758 14.327 81.7368 13.9995 82.6305 13.7977C83.9193 13.4795 85.2427 13.3257 86.5696 13.3402C87.1409 13.3452 87.7113 13.3882 88.2769 13.4691C88.9134 13.5624 89.539 13.72 90.1441 13.9395C90.7681 14.172 91.3494 14.5074 91.8643 14.932C92.4049 15.3813 92.8414 15.9444 93.1432 16.5818C93.4865 17.3686 93.6504 18.2231 93.6228 19.0822V26.8156C93.6385 27.2364 93.5631 27.6555 93.4019 28.0439C93.2407 28.4323 92.9975 28.7807 92.6892 29.0648C91.9185 29.7121 90.9921 30.1433 90.0035 30.315C88.603 30.5894 87.1775 30.7126 85.7511 30.6824Z" fill="#1D1D1B"/>
<path d="M102.633 30.199H97.875V7.60449H102.633V30.199Z" fill="#1D1D1B"/>
<path d="M4 1H244V-1H4V1ZM247 4V37H249V4H247ZM244 40H4V42H244V40ZM1 37V4H-1V37H1ZM4 40C2.34314 40 1 38.6569 1 37H-1C-1 39.7614 1.23857 42 4 42V40ZM247 37C247 38.6569 245.657 40 244 40V42C246.761 42 249 39.7614 249 37H247ZM244 1C245.657 1 247 2.34314 247 4H249C249 1.23858 246.761 -1 244 -1V1ZM4 -1C1.23858 -1 -1 1.23858 -1 4H1C1 2.34315 2.34315 1 4 1V-1Z" fill="#1DBEB4"/>
</svg>
