<svg width="166" height="71" viewBox="0 0 166 71" fill="none" xmlns="http://www.w3.org/2000/svg">
<g clip-path="url(#clip0_287_3081)">
<path d="M96.2501 0H1.85564C0.830799 0 0 0.82771 0 1.84874V24.4976C0 25.5186 0.830799 26.3463 1.85564 26.3463H96.2501C97.275 26.3463 98.1058 25.5186 98.1058 24.4976V1.84874C98.1058 0.82771 97.275 0 96.2501 0Z" fill="#1D1D1B"/>
<path d="M10.3204 61.7632C9.07681 61.7636 7.83457 61.6803 6.60221 61.5139C5.45406 61.3755 4.33111 61.0771 3.26622 60.6276C2.33446 60.2496 1.51595 59.6392 0.889337 58.855C0.261736 58.0053 -0.0524686 56.966 -0.000261021 55.9123V30.4038H6.49101V42.6388L5.24696 40.5615C5.80768 39.9209 6.50608 39.4145 7.29026 39.0797C8.09898 38.714 8.95155 38.4534 9.82699 38.3042C10.5305 38.1697 11.2444 38.0955 11.9606 38.0827C15.2827 38.0827 17.8125 39.0797 19.55 41.0739C21.2875 43.068 22.1539 45.9854 22.1493 49.826C22.1999 51.7544 21.8985 53.6758 21.2597 55.4969C20.751 56.91 19.8957 58.1739 18.7716 59.1736C17.6833 60.0979 16.4081 60.778 15.0325 61.1677C13.4982 61.5884 11.9116 61.7889 10.3204 61.7632ZM10.2301 56.2654C11.318 56.3337 12.4018 56.0783 13.3437 55.5315C14.116 55.0124 14.7007 54.26 15.0117 53.385C15.3666 52.373 15.5384 51.3063 15.519 50.2345C15.5645 48.8581 15.328 47.487 14.824 46.2047C14.4869 45.3034 13.8681 44.534 13.0587 44.0097C12.247 43.546 11.3256 43.3069 10.3899 43.3173C9.73087 43.326 9.07432 43.4002 8.43005 43.5389C7.76057 43.6688 7.11566 43.9024 6.51881 44.2313V54.1536C6.50532 54.3835 6.54251 54.6136 6.62775 54.8277C6.71299 55.0418 6.84423 55.2348 7.01226 55.393C7.41028 55.7263 7.88991 55.9485 8.40225 56.0369C9.00062 56.186 9.61353 56.2696 10.2301 56.2862V56.2654Z" fill="#1D1D1B"/>
<path d="M36.8691 61.7631C33.0744 61.7631 30.2203 60.7499 28.3068 58.7234C26.3932 56.6969 25.4387 53.7219 25.4434 49.7982C25.4434 45.5745 26.4141 42.5371 28.3554 40.6861C30.2968 38.835 33.1347 37.9118 36.8691 37.9164C39.0518 37.8456 41.2212 38.2793 43.2075 39.1835C44.9126 40.0015 46.2893 41.3707 47.1134 43.068C48.0659 45.183 48.5154 47.4886 48.4269 49.8051C48.4269 53.7288 47.4331 56.7039 45.4454 58.7303C43.4577 60.7568 40.5989 61.7677 36.8691 61.7631ZM36.8691 56.4869C37.8413 56.5243 38.8003 56.2527 39.6074 55.7114C40.3706 55.14 40.9444 54.3537 41.2546 53.4541C41.6539 52.2775 41.8421 51.0399 41.8106 49.7982C41.8586 48.4671 41.6704 47.1381 41.2546 45.8722C40.9535 45.01 40.3648 44.2768 39.5866 43.795C38.7524 43.349 37.8153 43.1293 36.8691 43.158C35.8951 43.1198 34.9305 43.3601 34.0891 43.8504C33.3364 44.3401 32.7766 45.0739 32.5045 45.9276C32.1229 47.1836 31.9515 48.4936 31.9972 49.8051C31.9972 52.0486 32.3887 53.7242 33.1717 54.832C33.5936 55.4022 34.1547 55.8554 34.8018 56.1487C35.4489 56.442 36.1606 56.5656 36.8691 56.5077V56.4869Z" fill="#1D1D1B"/>
<path d="M63.0986 61.7631C59.3039 61.7631 56.4498 60.7499 54.5363 58.7234C52.6227 56.6969 51.6682 53.7219 51.6729 49.7982C51.6729 45.5745 52.6435 42.5371 54.5849 40.6861C56.5263 38.835 59.3642 37.9118 63.0986 37.9164C65.2813 37.8456 67.4507 38.2793 69.437 39.1835C71.128 40.006 72.4916 41.3719 73.3081 43.061C74.2606 45.1761 74.7101 47.4817 74.6217 49.7982C74.6217 53.7219 73.6278 56.6969 71.6401 58.7234C69.6524 60.7499 66.8053 61.7631 63.0986 61.7631ZM63.0986 56.4869C64.0708 56.5243 65.0298 56.2527 65.8369 55.7114C66.6001 55.14 67.1739 54.3537 67.484 53.4541C67.8834 52.2775 68.0716 51.0399 68.04 49.7982C68.0881 48.4671 67.8999 47.1381 67.484 45.8722C67.183 45.01 66.5943 44.2768 65.8161 43.795C64.9819 43.349 64.0448 43.1293 63.0986 43.158C62.1246 43.1198 61.16 43.3601 60.3186 43.8504C59.5658 44.3401 59.0061 45.0739 58.734 45.9276C58.3524 47.1836 58.181 48.4937 58.2267 49.8051C58.2267 52.0486 58.6182 53.7242 59.4012 54.832C59.823 55.4022 60.3842 55.8554 61.0313 56.1487C61.6784 56.442 62.3901 56.5656 63.0986 56.5077V56.4869Z" fill="#1D1D1B"/>
<path d="M85.7974 61.1193H79.2158V30.2307H85.8878L85.7974 61.1193ZM84.4074 48.7528L92.6779 38.692H100.698L88.1882 51.8478L84.4074 48.7528ZM89.4323 45.8723L101.31 61.1054H92.9003L84.7132 50.3314L89.4323 45.8723Z" fill="#1D1D1B"/>
<path d="M105.368 35.6384V30.5422H112.221V35.6384H105.368ZM105.507 61.1192V39.0035H112.13L112.179 61.1192H105.507Z" fill="#1D1D1B"/>
<path d="M118.094 40.5961C118.812 40.2393 119.555 39.9361 120.318 39.689C121.309 39.3586 122.318 39.0858 123.341 38.872C124.439 38.6366 125.544 38.4427 126.656 38.2973C127.681 38.1533 128.714 38.0793 129.749 38.0757C131.5 38.0333 133.245 38.2958 134.906 38.8512C136.244 39.2984 137.394 40.1782 138.172 41.3508C139.001 42.7752 139.397 44.4083 139.312 46.0523V61.1192H132.682V47.3817C132.686 46.855 132.604 46.3311 132.439 45.8307C132.283 45.3498 132.012 44.914 131.648 44.5616C131.285 44.2092 130.841 43.9507 130.354 43.8089C129.692 43.6065 129.002 43.5106 128.31 43.525C127.62 43.527 126.932 43.6083 126.26 43.7673C125.725 43.883 125.203 44.0547 124.703 44.2797V61.1192H118.08L118.094 40.5961Z" fill="#1D1D1B"/>
<path d="M153.809 61.7633C151.968 61.7095 150.163 61.2357 148.534 60.3785C147.047 59.5277 145.852 58.2484 145.108 56.7087C144.228 54.8009 143.809 52.7139 143.885 50.6155C143.822 48.5155 144.137 46.4213 144.816 44.4322C145.332 42.9497 146.228 41.6274 147.415 40.5963C148.592 39.6491 149.971 38.9835 151.446 38.6506C153.166 38.2482 154.928 38.0552 156.694 38.0759C158.342 38.0439 159.985 38.2777 161.559 38.7683C162.803 39.1461 163.924 39.849 164.804 40.804C165.583 41.7182 165.994 42.8875 165.958 44.086V61.3963C165.988 62.8172 165.733 64.2296 165.207 65.5508C164.716 66.7257 163.943 67.7624 162.955 68.5697C161.891 69.4161 160.667 70.0402 159.355 70.4046C157.772 70.8428 156.134 71.0527 154.49 71.0278C152.783 71.0531 151.076 70.9117 149.396 70.6054C148.276 70.4164 147.19 70.0665 146.171 69.5668V63.7575C146.616 63.9375 147.269 64.1729 148.131 64.4499C149.076 64.7623 150.042 65.0052 151.022 65.1769C152.079 65.3698 153.152 65.4671 154.226 65.4677C155.331 65.5216 156.434 65.3251 157.451 64.893C158.139 64.5707 158.696 64.0234 159.029 63.342C159.336 62.6441 159.488 61.8882 159.474 61.1263V57.4911L160.766 58.419C160.295 59.0924 159.723 59.6902 159.07 60.1916C158.384 60.715 157.61 61.1135 156.784 61.3686C155.818 61.6499 154.815 61.7829 153.809 61.7633ZM155.498 56.7987C156.217 56.8035 156.933 56.7222 157.632 56.5564C158.284 56.3923 158.912 56.1456 159.501 55.8224V45.5609C159.518 45.3 159.479 45.0385 159.387 44.7937C159.295 44.549 159.151 44.3266 158.966 44.1414C158.589 43.7997 158.129 43.5612 157.632 43.449C157.077 43.3304 156.511 43.2724 155.943 43.2759C154.8 43.2134 153.667 43.5246 152.718 44.1622C151.91 44.7846 151.319 45.6446 151.029 46.6203C150.672 47.7749 150.499 48.9781 150.515 50.1862C150.417 51.9117 150.906 53.6198 151.905 55.0331C152.318 55.6023 152.865 56.0624 153.497 56.3737C154.129 56.685 154.828 56.838 155.533 56.8195L155.498 56.7987Z" fill="#1D1D1B"/>
<path d="M6.17188 20.9454V6.46704H10.7241C12.9898 6.46704 14.6925 7.07636 15.8323 8.28116C16.9721 9.48596 17.542 11.2932 17.542 13.6958C17.542 16.0985 16.9721 17.9057 15.8323 19.1174C14.6925 20.3291 12.9898 20.9454 10.7241 20.9454H6.17188ZM7.74257 19.4706H10.6199C12.4732 19.4706 13.8215 19.0089 14.6647 18.0857C15.5126 17.1579 15.9296 15.6969 15.9296 13.7028C15.9296 11.7086 15.5126 10.2407 14.6647 9.31978C13.8168 8.39887 12.4755 7.93495 10.6199 7.93495H7.74257V19.4706Z" fill="white"/>
<path d="M22.8789 20.9454V6.46704H24.4496V20.9454H22.8789Z" fill="white"/>
<path d="M36.5154 21.1603C35.222 21.2053 33.9388 20.9167 32.7902 20.3224C31.7833 19.7608 30.9896 18.885 30.5315 17.8298C29.5299 15.1667 29.5299 12.2324 30.5315 9.56927C30.9943 8.52233 31.7873 7.65445 32.7902 7.09736C33.9421 6.51341 35.2237 6.22992 36.5154 6.27338C37.3047 6.27375 38.0919 6.35496 38.8645 6.51573C39.632 6.67329 40.3784 6.91961 41.0885 7.24969V8.87685C40.395 8.56846 39.6823 8.3048 38.9548 8.0875C38.2199 7.8675 37.4566 7.75554 36.6891 7.75515C35.6455 7.71555 34.6086 7.93693 33.6729 8.39909C32.8768 8.82666 32.2551 9.51707 31.9145 10.3517C31.5047 11.4203 31.3133 12.5597 31.3516 13.703C31.3147 14.8507 31.5061 15.9943 31.9145 17.0681C32.2548 17.9047 32.8764 18.5974 33.6729 19.0276C34.6086 19.4898 35.6455 19.7112 36.6891 19.6716C37.2569 19.6701 37.8238 19.6262 38.3849 19.54C38.9385 19.4526 39.4845 19.323 40.0182 19.1523V14.9978H36.5432V13.5022H41.6167V20.0316C40.8302 20.4023 40.0051 20.6856 39.1564 20.8764C38.2893 21.0681 37.4036 21.1633 36.5154 21.1603Z" fill="white"/>
<path d="M47.4688 20.9454V6.46704H49.0394V20.9454H47.4688Z" fill="white"/>
<path d="M58.6439 20.9454V7.9488H53.501V6.46704H65.3159V7.9488H60.1938V20.9454H58.6439Z" fill="white"/>
<path d="M67.0674 20.9454L72.8637 6.46704H74.4343L80.2028 20.9454H78.5279L73.5239 7.92111L73.8506 7.87956L68.7979 20.9454H67.0674ZM69.618 16.4309L70.313 14.9352H77.4159L77.5271 16.4309H69.618Z" fill="white"/>
<path d="M84.6436 20.9454V6.46704H86.2073V19.4221H93.6785V20.9454H84.6436Z" fill="white"/>
</g>
<defs>
<clipPath id="clip0_287_3081">
<rect width="166" height="71" fill="white"/>
</clipPath>
</defs>
</svg>
